<mxfile host="app.diagrams.net" modified="2020-07-23T14:49:22.733Z" agent="5.0 (Windows NT 10.0; Win64; x64) AppleWebKit/537.36 (KHTML, like Gecko) Chrome/84.0.4147.89 Safari/537.36" etag="21Kz4Zi8KzID5d0NZHHv" version="13.5.1" type="github">
  <diagram id="0kAM369NFLN9Y36AZ9Ud" name="Page-1">
    <mxGraphModel dx="1038" dy="580" grid="1" gridSize="10" guides="1" tooltips="1" connect="1" arrows="1" fold="1" page="1" pageScale="1" pageWidth="827" pageHeight="1169" math="0" shadow="0">
      <root>
        <mxCell id="0" />
        <mxCell id="1" parent="0" />
        <mxCell id="HUhVvKD2nnKMBI48ihC7-1" value="" style="verticalLabelPosition=bottom;verticalAlign=top;html=1;shadow=0;dashed=0;strokeWidth=1;shape=mxgraph.android.phone2;strokeColor=#c0c0c0;" vertex="1" parent="1">
          <mxGeometry x="238.46" y="20" width="323.08" height="630" as="geometry" />
        </mxCell>
        <mxCell id="HUhVvKD2nnKMBI48ihC7-2" value="NavBar" style="rounded=0;whiteSpace=wrap;html=1;" vertex="1" parent="1">
          <mxGeometry x="260" y="80" width="280" height="60" as="geometry" />
        </mxCell>
        <mxCell id="HUhVvKD2nnKMBI48ihC7-3" value="TODO title" style="rounded=0;whiteSpace=wrap;html=1;" vertex="1" parent="1">
          <mxGeometry x="260" y="150" width="220" height="50" as="geometry" />
        </mxCell>
        <mxCell id="HUhVvKD2nnKMBI48ihC7-4" value="+" style="rounded=0;whiteSpace=wrap;html=1;" vertex="1" parent="1">
          <mxGeometry x="490" y="150" width="50" height="50" as="geometry" />
        </mxCell>
        <mxCell id="HUhVvKD2nnKMBI48ihC7-5" value="TODO 1" style="rounded=0;whiteSpace=wrap;html=1;" vertex="1" parent="1">
          <mxGeometry x="260" y="230" width="280" height="40" as="geometry" />
        </mxCell>
        <mxCell id="HUhVvKD2nnKMBI48ihC7-6" value="TODO 2" style="rounded=0;whiteSpace=wrap;html=1;" vertex="1" parent="1">
          <mxGeometry x="260" y="280" width="280" height="40" as="geometry" />
        </mxCell>
        <mxCell id="HUhVvKD2nnKMBI48ihC7-7" value="TODO 3" style="rounded=0;whiteSpace=wrap;html=1;" vertex="1" parent="1">
          <mxGeometry x="260" y="330" width="280" height="40" as="geometry" />
        </mxCell>
        <mxCell id="HUhVvKD2nnKMBI48ihC7-9" value="TODO 4" style="rounded=0;whiteSpace=wrap;html=1;" vertex="1" parent="1">
          <mxGeometry x="260" y="380" width="280" height="40" as="geometry" />
        </mxCell>
        <mxCell id="HUhVvKD2nnKMBI48ihC7-10" value="TODO ..." style="rounded=0;whiteSpace=wrap;html=1;" vertex="1" parent="1">
          <mxGeometry x="260" y="430" width="280" height="40" as="geometry" />
        </mxCell>
      </root>
    </mxGraphModel>
  </diagram>
</mxfile>
